<?xml version="1.0" encoding="UTF-8" standalone="no"?>
<!-- Created with Inkscape (http://www.inkscape.org/) -->

<svg
   viewBox="0 0 15 15"
   version="1.1"
   id="svg38950"
   xmlns="http://www.w3.org/2000/svg"
   xmlns:svg="http://www.w3.org/2000/svg">
  <defs
     id="defs38947" />
  <g
     id="layer1"
     transform="translate(-5,-1.9999892)">
    <g
       id="g39590"
       transform="translate(1.6638449,2)"
       style="fill:#ffffff;fill-opacity:1">
      <g
         id="g35993"
         transform="matrix(1.2792266,0,0,1.2842027,-198.4331,-436.37775)"
         style="fill:#ffffff;fill-opacity:1">
        <g
           id="g33045"
           transform="translate(0,5.2916663)"
           style="fill:#ffffff;fill-opacity:1">
          <g
             id="g37442-9-5"
             style="fill:#ffffff;fill-opacity:1;stroke:none;stroke-opacity:0.992157"
             transform="matrix(1.7397362,0,0,1.7397362,-157.74513,315.73208)">
            <g
               id="g37432-8-9"
               style="fill:#ffffff;fill-opacity:1;stroke:none;stroke-opacity:0.992157">
              <g
                 id="g37424-1-8"
                 transform="translate(0.65481038,0.79512688)"
                 style="fill:#ffffff;fill-opacity:1;stroke:none;stroke-opacity:0.992157">
                <path
                   style="fill:#ffffff;fill-opacity:1;fill-rule:nonzero;stroke:none;stroke-width:0.0140893;stroke-opacity:0.992157"
                   d="m 181.45624,10.751284 c 0.18807,-0.20568 0.36848,-0.416312 0.55939,-0.622024 0.09,-0.09706 0.24552,-0.09803 0.3605,-0.02273 0.13009,0.0852 0.23717,0.167531 0.27519,0.280976 0.0503,0.15007 -0.13842,0.236406 -0.21848,0.34329 -0.0869,0.115878 -0.29251,0.120162 -0.35892,-0.03082 -0.0521,-0.118227 0.0953,-0.212634 0.17052,-0.106126 0.12141,0.05707 0.23716,-0.07737 0.18204,-0.202213 -0.0475,-0.1072 -0.17925,-0.19818 -0.29538,-0.140087 -0.10251,0.112663 -0.25433,0.18842 -0.32205,0.324347 -0.0581,0.116799 0.0504,0.225439 0.14299,0.283452 0.10595,0.06643 0.15561,0.20506 0.28932,0.229756 0.12187,0.0225 0.21425,-0.0827 0.28499,-0.164374 0.17682,-0.204263 0.34741,-0.413145 0.52573,-0.616962 0.1022,-0.116783 0.18878,-0.277812 0.35818,-0.304875 0.15764,-0.025187 0.26134,0.119463 0.37221,0.210273 0.0862,0.07069 0.12899,0.200048 0.0338,0.297858 -0.0909,0.09326 -0.1565,0.25817 -0.29228,0.265036 -0.13036,0.0066 -0.28641,-0.15934 -0.19629,-0.267636 0.0967,-0.116174 0.22988,0.152792 0.31732,-0.0051 0.077,-0.138777 -0.0445,-0.337278 -0.18877,-0.342172 -0.12856,-0.0041 -0.16077,0.155033 -0.25114,0.21517 -0.10746,0.07146 -0.18244,0.225855 -0.0858,0.34453 0.0823,0.100804 0.17141,0.194574 0.27349,0.275639 0.10623,0.08453 0.24381,0.01205 0.34717,-0.06984 0.086,-0.06817 0.11131,-0.202946 0.22378,-0.237448 0.16337,0.01442 0.007,0.205703 -0.0516,0.275759 -0.13227,0.157549 -0.36442,0.261697 -0.56355,0.16544 -0.14152,-0.06846 -0.19969,-0.234913 -0.32641,-0.318305 -0.1311,-0.08637 -0.25612,0.03976 -0.32765,0.144878 -0.11414,0.167771 -0.33345,0.318227 -0.53676,0.240295 -0.17274,-0.06625 -0.23875,-0.273058 -0.3981,-0.3525 -0.14196,-0.07075 -0.34294,0.19475 -0.34294,0.19475 0,0 -0.28031,0.04072 0.0395,-0.288237 z"
                   id="use37418-0-91" />
              </g>
            </g>
          </g>
          <g
             id="g37442-9-5-44"
             style="fill:#ffffff;fill-opacity:1;stroke:none;stroke-opacity:0.992157"
             transform="matrix(0,1.7397362,1.7397362,0,138.94687,19.028414)">
            <g
               id="g37432-8-9-2"
               style="fill:#ffffff;fill-opacity:1;stroke:none;stroke-opacity:0.992157">
              <g
                 id="g37424-1-8-9"
                 transform="translate(0.65481038,0.79512688)"
                 style="fill:#ffffff;fill-opacity:1;stroke:none;stroke-opacity:0.992157">
                <path
                   style="fill:#ffffff;fill-opacity:1;fill-rule:nonzero;stroke:none;stroke-width:0.0140893;stroke-opacity:0.992157"
                   d="m 181.45624,10.751284 c 0.18807,-0.20568 0.36848,-0.416312 0.55939,-0.622024 0.09,-0.09706 0.24552,-0.09803 0.3605,-0.02273 0.13009,0.0852 0.23717,0.167531 0.27519,0.280976 0.0503,0.15007 -0.13842,0.236406 -0.21848,0.34329 -0.0869,0.115878 -0.29251,0.120162 -0.35892,-0.03082 -0.0521,-0.118227 0.0953,-0.212634 0.17052,-0.106126 0.12141,0.05707 0.23716,-0.07737 0.18204,-0.202213 -0.0475,-0.1072 -0.17925,-0.19818 -0.29538,-0.140087 -0.10251,0.112663 -0.25433,0.18842 -0.32205,0.324347 -0.0581,0.116799 0.0504,0.225439 0.14299,0.283452 0.10595,0.06643 0.15561,0.20506 0.28932,0.229756 0.12187,0.0225 0.21425,-0.0827 0.28499,-0.164374 0.17682,-0.204263 0.34741,-0.413145 0.52573,-0.616962 0.1022,-0.116783 0.18878,-0.277812 0.35818,-0.304875 0.15764,-0.025187 0.26134,0.119463 0.37221,0.210273 0.0862,0.07069 0.12899,0.200048 0.0338,0.297858 -0.0909,0.09326 -0.1565,0.25817 -0.29228,0.265036 -0.13036,0.0066 -0.28641,-0.15934 -0.19629,-0.267636 0.0967,-0.116174 0.22988,0.152792 0.31732,-0.0051 0.077,-0.138777 -0.0445,-0.337278 -0.18877,-0.342172 -0.12856,-0.0041 -0.16077,0.155033 -0.25114,0.21517 -0.10746,0.07146 -0.18244,0.225855 -0.0858,0.34453 0.0823,0.100804 0.17141,0.194574 0.27349,0.275639 0.10623,0.08453 0.24381,0.01205 0.34717,-0.06984 0.086,-0.06817 0.11131,-0.202946 0.22378,-0.237448 0.16337,0.01442 0.007,0.205703 -0.0516,0.275759 -0.13227,0.157549 -0.36442,0.261697 -0.56355,0.16544 -0.14152,-0.06846 -0.19969,-0.234913 -0.32641,-0.318305 -0.1311,-0.08637 -0.25612,0.03976 -0.32765,0.144878 -0.11414,0.167771 -0.33345,0.318227 -0.53676,0.240295 -0.17274,-0.06625 -0.23875,-0.273058 -0.3981,-0.3525 -0.14196,-0.07075 -0.34294,0.19475 -0.34294,0.19475 0,0 -0.28031,0.04072 0.0395,-0.288237 z"
                   id="use37418-0-91-2" />
              </g>
            </g>
          </g>
        </g>
        <g
           id="g33063"
           transform="matrix(-1,0,0,1,327.1809,5.2916663)"
           style="fill:#ffffff;fill-opacity:1">
          <g
             id="g33053"
             style="fill:#ffffff;fill-opacity:1;stroke:none;stroke-opacity:0.992157"
             transform="matrix(1.7397362,0,0,1.7397362,-157.74513,315.73208)">
            <g
               id="g33051"
               style="fill:#ffffff;fill-opacity:1;stroke:none;stroke-opacity:0.992157">
              <g
                 id="g33049"
                 transform="translate(0.65481038,0.79512688)"
                 style="fill:#ffffff;fill-opacity:1;stroke:none;stroke-opacity:0.992157">
                <path
                   style="fill:#ffffff;fill-opacity:1;fill-rule:nonzero;stroke:none;stroke-width:0.0140893;stroke-opacity:0.992157"
                   d="m 181.45624,10.751284 c 0.18807,-0.20568 0.36848,-0.416312 0.55939,-0.622024 0.09,-0.09706 0.24552,-0.09803 0.3605,-0.02273 0.13009,0.0852 0.23717,0.167531 0.27519,0.280976 0.0503,0.15007 -0.13842,0.236406 -0.21848,0.34329 -0.0869,0.115878 -0.29251,0.120162 -0.35892,-0.03082 -0.0521,-0.118227 0.0953,-0.212634 0.17052,-0.106126 0.12141,0.05707 0.23716,-0.07737 0.18204,-0.202213 -0.0475,-0.1072 -0.17925,-0.19818 -0.29538,-0.140087 -0.10251,0.112663 -0.25433,0.18842 -0.32205,0.324347 -0.0581,0.116799 0.0504,0.225439 0.14299,0.283452 0.10595,0.06643 0.15561,0.20506 0.28932,0.229756 0.12187,0.0225 0.21425,-0.0827 0.28499,-0.164374 0.17682,-0.204263 0.34741,-0.413145 0.52573,-0.616962 0.1022,-0.116783 0.18878,-0.277812 0.35818,-0.304875 0.15764,-0.025187 0.26134,0.119463 0.37221,0.210273 0.0862,0.07069 0.12899,0.200048 0.0338,0.297858 -0.0909,0.09326 -0.1565,0.25817 -0.29228,0.265036 -0.13036,0.0066 -0.28641,-0.15934 -0.19629,-0.267636 0.0967,-0.116174 0.22988,0.152792 0.31732,-0.0051 0.077,-0.138777 -0.0445,-0.337278 -0.18877,-0.342172 -0.12856,-0.0041 -0.16077,0.155033 -0.25114,0.21517 -0.10746,0.07146 -0.18244,0.225855 -0.0858,0.34453 0.0823,0.100804 0.17141,0.194574 0.27349,0.275639 0.10623,0.08453 0.24381,0.01205 0.34717,-0.06984 0.086,-0.06817 0.11131,-0.202946 0.22378,-0.237448 0.16337,0.01442 0.007,0.205703 -0.0516,0.275759 -0.13227,0.157549 -0.36442,0.261697 -0.56355,0.16544 -0.14152,-0.06846 -0.19969,-0.234913 -0.32641,-0.318305 -0.1311,-0.08637 -0.25612,0.03976 -0.32765,0.144878 -0.11414,0.167771 -0.33345,0.318227 -0.53676,0.240295 -0.17274,-0.06625 -0.23875,-0.273058 -0.3981,-0.3525 -0.14196,-0.07075 -0.34294,0.19475 -0.34294,0.19475 0,0 -0.28031,0.04072 0.0395,-0.288237 z"
                   id="path33047" />
              </g>
            </g>
          </g>
          <g
             id="g33061"
             style="fill:#ffffff;fill-opacity:1;stroke:none;stroke-opacity:0.992157"
             transform="matrix(0,1.7397362,1.7397362,0,138.94687,19.028414)">
            <g
               id="g33059"
               style="fill:#ffffff;fill-opacity:1;stroke:none;stroke-opacity:0.992157">
              <g
                 id="g33057"
                 transform="translate(0.65481038,0.79512688)"
                 style="fill:#ffffff;fill-opacity:1;stroke:none;stroke-opacity:0.992157">
                <path
                   style="fill:#ffffff;fill-opacity:1;fill-rule:nonzero;stroke:none;stroke-width:0.0140893;stroke-opacity:0.992157"
                   d="m 181.45624,10.751284 c 0.18807,-0.20568 0.36848,-0.416312 0.55939,-0.622024 0.09,-0.09706 0.24552,-0.09803 0.3605,-0.02273 0.13009,0.0852 0.23717,0.167531 0.27519,0.280976 0.0503,0.15007 -0.13842,0.236406 -0.21848,0.34329 -0.0869,0.115878 -0.29251,0.120162 -0.35892,-0.03082 -0.0521,-0.118227 0.0953,-0.212634 0.17052,-0.106126 0.12141,0.05707 0.23716,-0.07737 0.18204,-0.202213 -0.0475,-0.1072 -0.17925,-0.19818 -0.29538,-0.140087 -0.10251,0.112663 -0.25433,0.18842 -0.32205,0.324347 -0.0581,0.116799 0.0504,0.225439 0.14299,0.283452 0.10595,0.06643 0.15561,0.20506 0.28932,0.229756 0.12187,0.0225 0.21425,-0.0827 0.28499,-0.164374 0.17682,-0.204263 0.34741,-0.413145 0.52573,-0.616962 0.1022,-0.116783 0.18878,-0.277812 0.35818,-0.304875 0.15764,-0.025187 0.26134,0.119463 0.37221,0.210273 0.0862,0.07069 0.12899,0.200048 0.0338,0.297858 -0.0909,0.09326 -0.1565,0.25817 -0.29228,0.265036 -0.13036,0.0066 -0.28641,-0.15934 -0.19629,-0.267636 0.0967,-0.116174 0.22988,0.152792 0.31732,-0.0051 0.077,-0.138777 -0.0445,-0.337278 -0.18877,-0.342172 -0.12856,-0.0041 -0.16077,0.155033 -0.25114,0.21517 -0.10746,0.07146 -0.18244,0.225855 -0.0858,0.34453 0.0823,0.100804 0.17141,0.194574 0.27349,0.275639 0.10623,0.08453 0.24381,0.01205 0.34717,-0.06984 0.086,-0.06817 0.11131,-0.202946 0.22378,-0.237448 0.16337,0.01442 0.007,0.205703 -0.0516,0.275759 -0.13227,0.157549 -0.36442,0.261697 -0.56355,0.16544 -0.14152,-0.06846 -0.19969,-0.234913 -0.32641,-0.318305 -0.1311,-0.08637 -0.25612,0.03976 -0.32765,0.144878 -0.11414,0.167771 -0.33345,0.318227 -0.53676,0.240295 -0.17274,-0.06625 -0.23875,-0.273058 -0.3981,-0.3525 -0.14196,-0.07075 -0.34294,0.19475 -0.34294,0.19475 0,0 -0.28031,0.04072 0.0395,-0.288237 z"
                   id="path33055" />
              </g>
            </g>
          </g>
        </g>
        <g
           id="g33099"
           transform="matrix(1,0,0,-1,0,685.99755)"
           style="fill:#ffffff;fill-opacity:1">
          <g
             id="g33089"
             style="fill:#ffffff;fill-opacity:1;stroke:none;stroke-opacity:0.992157"
             transform="matrix(1.7397362,0,0,1.7397362,-157.74513,315.73208)">
            <g
               id="g33087"
               style="fill:#ffffff;fill-opacity:1;stroke:none;stroke-opacity:0.992157">
              <g
                 id="g33085"
                 transform="translate(0.65481038,0.79512688)"
                 style="fill:#ffffff;fill-opacity:1;stroke:none;stroke-opacity:0.992157">
                <path
                   style="fill:#ffffff;fill-opacity:1;fill-rule:nonzero;stroke:none;stroke-width:0.0140893;stroke-opacity:0.992157"
                   d="m 181.45624,10.751284 c 0.18807,-0.20568 0.36848,-0.416312 0.55939,-0.622024 0.09,-0.09706 0.24552,-0.09803 0.3605,-0.02273 0.13009,0.0852 0.23717,0.167531 0.27519,0.280976 0.0503,0.15007 -0.13842,0.236406 -0.21848,0.34329 -0.0869,0.115878 -0.29251,0.120162 -0.35892,-0.03082 -0.0521,-0.118227 0.0953,-0.212634 0.17052,-0.106126 0.12141,0.05707 0.23716,-0.07737 0.18204,-0.202213 -0.0475,-0.1072 -0.17925,-0.19818 -0.29538,-0.140087 -0.10251,0.112663 -0.25433,0.18842 -0.32205,0.324347 -0.0581,0.116799 0.0504,0.225439 0.14299,0.283452 0.10595,0.06643 0.15561,0.20506 0.28932,0.229756 0.12187,0.0225 0.21425,-0.0827 0.28499,-0.164374 0.17682,-0.204263 0.34741,-0.413145 0.52573,-0.616962 0.1022,-0.116783 0.18878,-0.277812 0.35818,-0.304875 0.15764,-0.025187 0.26134,0.119463 0.37221,0.210273 0.0862,0.07069 0.12899,0.200048 0.0338,0.297858 -0.0909,0.09326 -0.1565,0.25817 -0.29228,0.265036 -0.13036,0.0066 -0.28641,-0.15934 -0.19629,-0.267636 0.0967,-0.116174 0.22988,0.152792 0.31732,-0.0051 0.077,-0.138777 -0.0445,-0.337278 -0.18877,-0.342172 -0.12856,-0.0041 -0.16077,0.155033 -0.25114,0.21517 -0.10746,0.07146 -0.18244,0.225855 -0.0858,0.34453 0.0823,0.100804 0.17141,0.194574 0.27349,0.275639 0.10623,0.08453 0.24381,0.01205 0.34717,-0.06984 0.086,-0.06817 0.11131,-0.202946 0.22378,-0.237448 0.16337,0.01442 0.007,0.205703 -0.0516,0.275759 -0.13227,0.157549 -0.36442,0.261697 -0.56355,0.16544 -0.14152,-0.06846 -0.19969,-0.234913 -0.32641,-0.318305 -0.1311,-0.08637 -0.25612,0.03976 -0.32765,0.144878 -0.11414,0.167771 -0.33345,0.318227 -0.53676,0.240295 -0.17274,-0.06625 -0.23875,-0.273058 -0.3981,-0.3525 -0.14196,-0.07075 -0.34294,0.19475 -0.34294,0.19475 0,0 -0.28031,0.04072 0.0395,-0.288237 z"
                   id="path33083" />
              </g>
            </g>
          </g>
          <g
             id="g33097"
             style="fill:#ffffff;fill-opacity:1;stroke:none;stroke-opacity:0.992157"
             transform="matrix(0,1.7397362,1.7397362,0,138.94687,19.028414)">
            <g
               id="g33095"
               style="fill:#ffffff;fill-opacity:1;stroke:none;stroke-opacity:0.992157">
              <g
                 id="g33093"
                 transform="translate(0.65481038,0.79512688)"
                 style="fill:#ffffff;fill-opacity:1;stroke:none;stroke-opacity:0.992157">
                <path
                   style="fill:#ffffff;fill-opacity:1;fill-rule:nonzero;stroke:none;stroke-width:0.0140893;stroke-opacity:0.992157"
                   d="m 181.45624,10.751284 c 0.18807,-0.20568 0.36848,-0.416312 0.55939,-0.622024 0.09,-0.09706 0.24552,-0.09803 0.3605,-0.02273 0.13009,0.0852 0.23717,0.167531 0.27519,0.280976 0.0503,0.15007 -0.13842,0.236406 -0.21848,0.34329 -0.0869,0.115878 -0.29251,0.120162 -0.35892,-0.03082 -0.0521,-0.118227 0.0953,-0.212634 0.17052,-0.106126 0.12141,0.05707 0.23716,-0.07737 0.18204,-0.202213 -0.0475,-0.1072 -0.17925,-0.19818 -0.29538,-0.140087 -0.10251,0.112663 -0.25433,0.18842 -0.32205,0.324347 -0.0581,0.116799 0.0504,0.225439 0.14299,0.283452 0.10595,0.06643 0.15561,0.20506 0.28932,0.229756 0.12187,0.0225 0.21425,-0.0827 0.28499,-0.164374 0.17682,-0.204263 0.34741,-0.413145 0.52573,-0.616962 0.1022,-0.116783 0.18878,-0.277812 0.35818,-0.304875 0.15764,-0.025187 0.26134,0.119463 0.37221,0.210273 0.0862,0.07069 0.12899,0.200048 0.0338,0.297858 -0.0909,0.09326 -0.1565,0.25817 -0.29228,0.265036 -0.13036,0.0066 -0.28641,-0.15934 -0.19629,-0.267636 0.0967,-0.116174 0.22988,0.152792 0.31732,-0.0051 0.077,-0.138777 -0.0445,-0.337278 -0.18877,-0.342172 -0.12856,-0.0041 -0.16077,0.155033 -0.25114,0.21517 -0.10746,0.07146 -0.18244,0.225855 -0.0858,0.34453 0.0823,0.100804 0.17141,0.194574 0.27349,0.275639 0.10623,0.08453 0.24381,0.01205 0.34717,-0.06984 0.086,-0.06817 0.11131,-0.202946 0.22378,-0.237448 0.16337,0.01442 0.007,0.205703 -0.0516,0.275759 -0.13227,0.157549 -0.36442,0.261697 -0.56355,0.16544 -0.14152,-0.06846 -0.19969,-0.234913 -0.32641,-0.318305 -0.1311,-0.08637 -0.25612,0.03976 -0.32765,0.144878 -0.11414,0.167771 -0.33345,0.318227 -0.53676,0.240295 -0.17274,-0.06625 -0.23875,-0.273058 -0.3981,-0.3525 -0.14196,-0.07075 -0.34294,0.19475 -0.34294,0.19475 0,0 -0.28031,0.04072 0.0395,-0.288237 z"
                   id="path33091" />
              </g>
            </g>
          </g>
        </g>
        <g
           id="g33117"
           transform="rotate(180,163.59045,342.99877)"
           style="fill:#ffffff;fill-opacity:1">
          <g
             id="g33107"
             style="fill:#ffffff;fill-opacity:1;stroke:none;stroke-opacity:0.992157"
             transform="matrix(1.7397362,0,0,1.7397362,-157.74513,315.73208)">
            <g
               id="g33105"
               style="fill:#ffffff;fill-opacity:1;stroke:none;stroke-opacity:0.992157">
              <g
                 id="g33103"
                 transform="translate(0.65481038,0.79512688)"
                 style="fill:#ffffff;fill-opacity:1;stroke:none;stroke-opacity:0.992157">
                <path
                   style="fill:#ffffff;fill-opacity:1;fill-rule:nonzero;stroke:none;stroke-width:0.0140893;stroke-opacity:0.992157"
                   d="m 181.45624,10.751284 c 0.18807,-0.20568 0.36848,-0.416312 0.55939,-0.622024 0.09,-0.09706 0.24552,-0.09803 0.3605,-0.02273 0.13009,0.0852 0.23717,0.167531 0.27519,0.280976 0.0503,0.15007 -0.13842,0.236406 -0.21848,0.34329 -0.0869,0.115878 -0.29251,0.120162 -0.35892,-0.03082 -0.0521,-0.118227 0.0953,-0.212634 0.17052,-0.106126 0.12141,0.05707 0.23716,-0.07737 0.18204,-0.202213 -0.0475,-0.1072 -0.17925,-0.19818 -0.29538,-0.140087 -0.10251,0.112663 -0.25433,0.18842 -0.32205,0.324347 -0.0581,0.116799 0.0504,0.225439 0.14299,0.283452 0.10595,0.06643 0.15561,0.20506 0.28932,0.229756 0.12187,0.0225 0.21425,-0.0827 0.28499,-0.164374 0.17682,-0.204263 0.34741,-0.413145 0.52573,-0.616962 0.1022,-0.116783 0.18878,-0.277812 0.35818,-0.304875 0.15764,-0.025187 0.26134,0.119463 0.37221,0.210273 0.0862,0.07069 0.12899,0.200048 0.0338,0.297858 -0.0909,0.09326 -0.1565,0.25817 -0.29228,0.265036 -0.13036,0.0066 -0.28641,-0.15934 -0.19629,-0.267636 0.0967,-0.116174 0.22988,0.152792 0.31732,-0.0051 0.077,-0.138777 -0.0445,-0.337278 -0.18877,-0.342172 -0.12856,-0.0041 -0.16077,0.155033 -0.25114,0.21517 -0.10746,0.07146 -0.18244,0.225855 -0.0858,0.34453 0.0823,0.100804 0.17141,0.194574 0.27349,0.275639 0.10623,0.08453 0.24381,0.01205 0.34717,-0.06984 0.086,-0.06817 0.11131,-0.202946 0.22378,-0.237448 0.16337,0.01442 0.007,0.205703 -0.0516,0.275759 -0.13227,0.157549 -0.36442,0.261697 -0.56355,0.16544 -0.14152,-0.06846 -0.19969,-0.234913 -0.32641,-0.318305 -0.1311,-0.08637 -0.25612,0.03976 -0.32765,0.144878 -0.11414,0.167771 -0.33345,0.318227 -0.53676,0.240295 -0.17274,-0.06625 -0.23875,-0.273058 -0.3981,-0.3525 -0.14196,-0.07075 -0.34294,0.19475 -0.34294,0.19475 0,0 -0.28031,0.04072 0.0395,-0.288237 z"
                   id="path33101" />
              </g>
            </g>
          </g>
          <g
             id="g33115"
             style="fill:#ffffff;fill-opacity:1;stroke:none;stroke-opacity:0.992157"
             transform="matrix(0,1.7397362,1.7397362,0,138.94687,19.028414)">
            <g
               id="g33113"
               style="fill:#ffffff;fill-opacity:1;stroke:none;stroke-opacity:0.992157">
              <g
                 id="g33111"
                 transform="translate(0.65481038,0.79512688)"
                 style="fill:#ffffff;fill-opacity:1;stroke:none;stroke-opacity:0.992157">
                <path
                   style="fill:#ffffff;fill-opacity:1;fill-rule:nonzero;stroke:none;stroke-width:0.0140893;stroke-opacity:0.992157"
                   d="m 181.45624,10.751284 c 0.18807,-0.20568 0.36848,-0.416312 0.55939,-0.622024 0.09,-0.09706 0.24552,-0.09803 0.3605,-0.02273 0.13009,0.0852 0.23717,0.167531 0.27519,0.280976 0.0503,0.15007 -0.13842,0.236406 -0.21848,0.34329 -0.0869,0.115878 -0.29251,0.120162 -0.35892,-0.03082 -0.0521,-0.118227 0.0953,-0.212634 0.17052,-0.106126 0.12141,0.05707 0.23716,-0.07737 0.18204,-0.202213 -0.0475,-0.1072 -0.17925,-0.19818 -0.29538,-0.140087 -0.10251,0.112663 -0.25433,0.18842 -0.32205,0.324347 -0.0581,0.116799 0.0504,0.225439 0.14299,0.283452 0.10595,0.06643 0.15561,0.20506 0.28932,0.229756 0.12187,0.0225 0.21425,-0.0827 0.28499,-0.164374 0.17682,-0.204263 0.34741,-0.413145 0.52573,-0.616962 0.1022,-0.116783 0.18878,-0.277812 0.35818,-0.304875 0.15764,-0.025187 0.26134,0.119463 0.37221,0.210273 0.0862,0.07069 0.12899,0.200048 0.0338,0.297858 -0.0909,0.09326 -0.1565,0.25817 -0.29228,0.265036 -0.13036,0.0066 -0.28641,-0.15934 -0.19629,-0.267636 0.0967,-0.116174 0.22988,0.152792 0.31732,-0.0051 0.077,-0.138777 -0.0445,-0.337278 -0.18877,-0.342172 -0.12856,-0.0041 -0.16077,0.155033 -0.25114,0.21517 -0.10746,0.07146 -0.18244,0.225855 -0.0858,0.34453 0.0823,0.100804 0.17141,0.194574 0.27349,0.275639 0.10623,0.08453 0.24381,0.01205 0.34717,-0.06984 0.086,-0.06817 0.11131,-0.202946 0.22378,-0.237448 0.16337,0.01442 0.007,0.205703 -0.0516,0.275759 -0.13227,0.157549 -0.36442,0.261697 -0.56355,0.16544 -0.14152,-0.06846 -0.19969,-0.234913 -0.32641,-0.318305 -0.1311,-0.08637 -0.25612,0.03976 -0.32765,0.144878 -0.11414,0.167771 -0.33345,0.318227 -0.53676,0.240295 -0.17274,-0.06625 -0.23875,-0.273058 -0.3981,-0.3525 -0.14196,-0.07075 -0.34294,0.19475 -0.34294,0.19475 0,0 -0.28031,0.04072 0.0395,-0.288237 z"
                   id="path33109" />
              </g>
            </g>
          </g>
        </g>
      </g>
      <path
         style="fill:#ffffff;fill-opacity:1;stroke:none;stroke-width:0.0374731"
         d="M 7.6822413,8.5315827 H 10.101483 V 6.9124951 H 7.6822413 L 10.907901,3.6742878 14.13356,6.9124951 h -2.419242 v 1.6190876 h 2.419242 l -3.225659,3.2382283 z"
         id="path75190-0-7-8-8-9-4" />
    </g>
  </g>
</svg>
